# xmcd
#
# Track frame offsets:
#	150
#	14307
#	29586
#	48198
#	60307
#	81400
#	94370
#	110010
#	121197
#	135263
#	159396
#	171100
#	186527
#	205579
#	218025
#	233777
#	252145
#	267404
#	280137
#	294499
#	308493
#	318915
#	330320
#	342552
#
# Disc length: 4791 seconds
#
# Revision: 0
# Processed by: cddbd v1.5.2PL0 Copyright (c) Steve Scherf et al.
# Submitted via: EasyCDDAExtractor 16.0.0.1
#
DISCID=5312b518
DTITLE=ZZ Top - Asleep In The Desert - 1971-81
DYEAR=2014
DGENRE=Rock - Blues
TTITLE0=Precious And Grace
TTITLE1=Certified Blues
TTITLE2=Just Got Back From Baby's
TTITLE3=Nasty Dogs And Funky Kings
TTITLE4=Blue Jean Blues
TTITLE5=Waitin' For The Bus
TTITLE6=Jesus Just Left Chicago
TTITLE7=(Somebody Else Been) Shaking Your Tree
TTITLE8=Avalon Hideaway
TTITLE9=Brown Sugar
TTITLE10=Manic Mechanic
TTITLE11=Asleep In The Desert
TTITLE12=A Fool For Your Stockings
TTITLE13=Squank
TTITLE14=Master Of Sparks
TTITLE15=Shiek
TTITLE16=I Thank You
TTITLE17=Lowdown In The Street
TTITLE18=Have You Heard
TTITLE19=Arrested For Driving While Blind
TTITLE20=Neighbor, Neighbor
TTITLE21=Heaven, Hell Or Houston
TTITLE22=Apologies To Pearly
TTITLE23=Mushmouth Shoutin'
EXTD=
EXTT0=
EXTT1=
EXTT2=
EXTT3=
EXTT4=
EXTT5=
EXTT6=
EXTT7=
EXTT8=
EXTT9=
EXTT10=
EXTT11=
EXTT12=
EXTT13=
EXTT14=
EXTT15=
EXTT16=
EXTT17=
EXTT18=
EXTT19=
EXTT20=
EXTT21=
EXTT22=
EXTT23=
PLAYORDER=
